<svg xmlns="http://www.w3.org/2000/svg" viewBox="0 0 48 48">
  <path fill="#FFC107" d="M43.611 20.083H42V20H24v8h11.303C33.602 32.091 29.197 35 24 35 16.82 35 11 29.18 11 22S16.82 9 24 9c3.438 0 6.573 1.223 8.994 3.234l5.657-5.657C34.759 3.04 29.64 1 24 1 10.745 1 0 11.745 0 25s10.745 24 24 24c12.426 0 23-9 23-24 0-1.607-.177-3.17-.389-4.917z"/>
  <path fill="#FF3D00" d="M6.306 14.691l6.571 4.819C14.48 16.064 18.846 13 24 13c3.438 0 6.573 1.223 8.994 3.234l5.657-5.657C34.759 3.04 29.64 1 24 1 15.317 1 7.85 5.676 3.69 12.31l2.616 2.381z"/>
  <path fill="#4CAF50" d="M24 49c5.083 0 9.716-1.745 13.333-4.702l-6.157-5.2C29.74 40.636 26.99 41.5 24 41.5 18.862 41.5 14.5 38.463 12.889 34.08l-6.48 4.993C9.49 44.947 16.2 49 24 49z"/>
  <path fill="#1976D2" d="M43.611 20.083H42V20H24v8h11.303c-1.091 3.091-4.51 6.5-11.303 6.5-5.138 0-9.5-3.037-11.111-7.42l-6.48 4.993C8.51 39.947 15.22 44 23.02 44c12.426 0 23-9 23-24 0-1.607-.177-3.17-.409-4.917z"/>
</svg>

